<svg width="24"      xmlns="http://www.w3.org/2000/svg" height="24" viewBox="0 0 24 24" fill="white" >
<path d="M14.5 6C14.5 7.79493 13.0449 9.25 11.25 9.25C9.4551 9.25 8 7.79493 8 6C8 4.20507 9.4551 2.75 11.25 2.75C13.0449 2.75 14.5 4.20507 14.5 6Z" stroke="#1B1B1B" stroke-width="1.5"/>
<path d="M19 16C19 17.0123 18.2691 17.9955 16.9166 18.7531C15.5658 19.5099 13.6536 20 11.5 20C9.34636 20 7.43417 19.5099 6.08342 18.7531C4.73093 17.9955 4 17.0123 4 16C4 14.9877 4.73093 14.0045 6.08342 13.2469C7.43417 12.4901 9.34636 12 11.5 12C13.6536 12 15.5658 12.4901 16.9166 13.2469C18.2691 14.0045 19 14.9877 19 16Z" stroke="#1B1B1B" stroke-width="1.5"/>
</svg>
