<svg width="96" height="128" viewBox="0 0 96 128"      xmlns="http://www.w3.org/2000/svg" fill="none">
<g clip-path="url(#clip0_31_23)">
<path d="M17.383 49.152H3.3103L48 124.928L92.6896 49.152H78.7697" stroke="#1B3C82" stroke-width="2.5" stroke-linecap="round"/>
<path d="M25.3033 74.752L31.4492 85.6259" stroke="#1B3C82" stroke-width="2.5" stroke-linecap="round"/>
<path d="M11.0078 49.152L13.5686 53.6828" stroke="#1B3C82" stroke-width="2.5" stroke-linecap="round"/>
<path d="M71.0429 74.752L64.8906 85.6227" stroke="#1B3C82" stroke-width="2.5" stroke-linecap="round"/>
<path d="M85.3383 49.152L82.7749 53.6815" stroke="#1B3C82" stroke-width="2.5" stroke-linecap="round"/>
<path d="M54.4552 101.376L48.0132 111.616" stroke="#1B3C82" stroke-width="2.5" stroke-linecap="round"/>
<path d="M80.2855 34.816L92.6894 34.8164" stroke="#1B3C82" stroke-width="2.5" stroke-linecap="round"/>
<path d="M8.83967 45.171L3.31042 34.8316" stroke="#1B3C82" stroke-width="2.5" stroke-linecap="round"/>
<path d="M42.3723 101.376L48.0226 111.616" stroke="#1B3C82" stroke-width="2.5" stroke-linecap="round"/>
<path d="M86.8464 45.7769L92.6892 34.8164" stroke="#1B3C82" stroke-width="2.5" stroke-linecap="round"/>
<path d="M16.4507 34.816L3.31018 34.8316" stroke="#1B3C82" stroke-width="2.5" stroke-linecap="round"/>
<path d="M37.6422 92.16L40.8276 95.1161L44.0131 92.16L40.8276 89.2039L37.6422 92.16ZM58.3579 92.16L55.1725 89.2039L51.987 92.16L55.1725 95.1161L58.3579 92.16ZM40.8276 92.672H55.1725V91.648H40.8276V92.672Z" fill="#FF9900"/>
<path d="M37.3848 43.8543C37.5062 43.9874 37.5669 44.1257 37.5669 44.269C37.5669 44.3305 37.5614 44.397 37.5504 44.4687C37.5504 44.5302 37.5448 44.5865 37.5338 44.6377C37.5007 44.7503 37.429 44.8578 37.3186 44.9602C37.2304 45.0217 37.109 45.0678 36.9545 45.0985C36.8773 45.119 36.8 45.1343 36.7228 45.1446C36.6455 45.1548 36.5628 45.1702 36.4745 45.1906C36.3973 45.2009 36.32 45.206 36.2428 45.206C36.1655 45.206 36.0828 45.206 35.9945 45.206H35.1504C34.9517 45.2162 34.7531 45.2214 34.5545 45.2214C34.3669 45.2214 34.1793 45.2214 33.9917 45.2214C34.0028 45.5388 34.0083 45.8818 34.0083 46.2505C34.0083 46.6089 34.0028 47.0287 33.9917 47.51C33.9917 47.9913 33.9862 48.5494 33.9752 49.1842C33.9752 49.8191 33.9752 50.5564 33.9752 51.3961V52.5634C33.9752 52.6658 33.9807 52.7426 33.9917 52.7938C33.9917 52.8348 33.9917 52.8758 33.9917 52.9167C33.9917 52.9474 33.9862 52.9884 33.9752 53.0396C33.9531 53.1318 33.9366 53.2393 33.9255 53.3622C33.9255 53.4134 33.92 53.4646 33.909 53.5158C33.8979 53.5567 33.8814 53.6028 33.8593 53.654C33.8152 53.695 33.7931 53.7257 33.7931 53.7462L33.7435 53.8383C33.6883 53.9407 33.5835 54.038 33.429 54.1302C33.1862 54.2428 32.9159 54.2684 32.6179 54.207C32.4304 54.1865 32.2869 54.1404 32.1876 54.0687C32.0883 53.9766 32.0166 53.8844 31.9724 53.7922C31.9062 53.6796 31.8676 53.5721 31.8566 53.4697C31.8235 53.3775 31.8069 53.2802 31.8069 53.1778V45.2828C31.7407 45.2828 31.6028 45.2828 31.3931 45.2828C31.1835 45.2828 30.9573 45.2828 30.7145 45.2828C30.4828 45.2726 30.2621 45.2623 30.0524 45.2521C29.8428 45.2418 29.6993 45.2316 29.6221 45.2214C29.5559 45.2111 29.451 45.1958 29.3076 45.1753C29.1752 45.1548 29.0648 45.1343 28.9766 45.1138C28.7448 45.0524 28.5628 44.9551 28.4304 44.822C28.309 44.6889 28.2483 44.5404 28.2483 44.3766C28.2483 44.3151 28.2483 44.2537 28.2483 44.1922C28.2483 44.1308 28.2593 44.0745 28.2814 44.0233C28.3145 43.9004 28.4028 43.798 28.5462 43.7161C28.5904 43.6854 28.6566 43.6495 28.7448 43.6086C28.8442 43.5574 28.9379 43.5215 29.0262 43.501C29.1586 43.4601 29.3242 43.4294 29.5228 43.4089C29.611 43.3986 29.6993 43.3935 29.7876 43.3935C29.8759 43.3935 29.9697 43.3935 30.069 43.3935C30.4552 43.3935 30.8193 43.3935 31.1614 43.3935C31.5145 43.3935 31.8842 43.3884 32.2704 43.3782C32.9104 43.3679 33.5448 43.3679 34.1738 43.3782C34.8138 43.3782 35.4483 43.3884 36.0773 43.4089C36.2207 43.4191 36.3586 43.4345 36.491 43.455C36.6235 43.4754 36.7559 43.5113 36.8883 43.5625C36.9876 43.5932 37.0814 43.6342 37.1697 43.6854C37.2579 43.7263 37.3297 43.7826 37.3848 43.8543ZM38.8856 47.3103C39.2498 47.1465 39.6305 47.0287 40.0277 46.957C40.425 46.8854 40.8167 46.87 41.2029 46.911C41.6001 46.9519 41.9808 47.0492 42.345 47.2028C42.7201 47.3564 43.0622 47.5714 43.3712 47.8479C43.625 48.0834 43.8456 48.3702 44.0332 48.7081C44.2208 49.0358 44.3587 49.3583 44.447 49.6758C44.6346 50.239 44.6622 50.8073 44.5298 51.3807C44.3974 51.9542 44.1712 52.4866 43.8512 52.9782C43.6967 53.2034 43.5036 53.4082 43.2718 53.5926C43.0512 53.7666 42.8139 53.91 42.5601 54.0226C42.2291 54.166 41.8705 54.2633 41.4843 54.3145C41.0981 54.3759 40.7229 54.3913 40.3587 54.3606C39.6967 54.3298 39.1118 54.1762 38.6043 53.8998C38.1077 53.6233 37.705 53.27 37.396 52.8399C37.0981 52.4098 36.8994 51.9234 36.8001 51.3807C36.7119 50.8278 36.7505 50.2646 36.916 49.6911C37.0925 49.0767 37.3463 48.5801 37.6774 48.2012C38.0194 47.8121 38.4222 47.5151 38.8856 47.3103ZM39.3822 49.3686C39.2167 49.5119 39.0898 49.6911 39.0015 49.9062C38.9132 50.1212 38.8581 50.3465 38.836 50.582C38.8139 50.8073 38.8305 51.0377 38.8856 51.2732C38.9519 51.4985 39.0512 51.7033 39.1836 51.8876C39.2939 52.0412 39.4925 52.1692 39.7794 52.2716C40.0663 52.374 40.3643 52.4354 40.6732 52.4559C41.0263 52.4764 41.3353 52.3894 41.6001 52.1948C41.865 51.99 42.0636 51.7391 42.196 51.4422C42.3394 51.1452 42.4056 50.8226 42.3946 50.4745C42.3836 50.1263 42.2843 49.8089 42.0967 49.5222C41.9643 49.3174 41.7767 49.1689 41.5339 49.0767C41.3022 48.9743 41.0539 48.9231 40.7891 48.9231C40.5353 48.9129 40.2815 48.9487 40.0277 49.0306C39.7739 49.1023 39.5587 49.215 39.3822 49.3686ZM52.7343 50.5974C52.7122 50.9353 52.6901 51.2783 52.668 51.6265C52.646 51.9644 52.5853 52.2921 52.486 52.6095C52.3977 52.927 52.2542 53.2137 52.0556 53.4697C51.868 53.7257 51.5977 53.9305 51.2446 54.0841C50.9356 54.2274 50.6046 54.3247 50.2515 54.3759C49.8984 54.4374 49.5453 54.463 49.1922 54.4527C48.8391 54.4425 48.497 54.3913 48.166 54.2991C47.8349 54.2172 47.537 54.0994 47.2722 53.9458C47.0074 53.7922 46.7922 53.5926 46.6267 53.3468C46.4611 53.101 46.3287 52.8348 46.2294 52.5481C46.1411 52.2614 46.0805 51.9644 46.0474 51.6572C46.0142 51.35 45.9922 51.0633 45.9811 50.797C45.937 50.0905 45.937 49.3942 45.9811 48.7081C45.9811 48.575 45.9811 48.4265 45.9811 48.2626C45.9811 48.0886 45.9922 47.9196 46.0143 47.7558C46.0474 47.5919 46.097 47.4434 46.1632 47.3103C46.2294 47.167 46.3398 47.0594 46.4942 46.9878C46.8253 46.8239 47.1287 46.8137 47.4046 46.957C47.6915 47.1004 47.8625 47.3974 47.9177 47.8479C47.9508 48.0834 47.9618 48.3446 47.9508 48.6313C47.9508 48.918 47.9618 49.1791 47.9839 49.4146C47.9949 49.7628 48.006 50.1417 48.017 50.5513C48.028 50.9506 48.0887 51.309 48.1991 51.6265C48.3205 51.9439 48.5136 52.1846 48.7784 52.3484C49.0542 52.502 49.4625 52.5071 50.0032 52.3638C50.257 52.2921 50.4225 52.1129 50.4998 51.8262C50.588 51.5394 50.6322 51.1145 50.6322 50.5513C50.6322 50.3055 50.6267 50.0342 50.6156 49.7372C50.6046 49.4402 50.5991 49.1484 50.5991 48.8617C50.5991 48.5647 50.6046 48.2934 50.6156 48.0476C50.6377 47.7916 50.6708 47.597 50.7149 47.4639C50.7701 47.2796 50.886 47.1414 51.0625 47.0492C51.2391 46.957 51.4267 46.911 51.6253 46.911C51.8239 46.9007 52.0115 46.9366 52.188 47.0185C52.3646 47.1004 52.486 47.2335 52.5522 47.4178C52.6184 47.5817 52.6625 47.7916 52.6846 48.0476C52.7177 48.2934 52.7398 48.5647 52.7508 48.8617C52.7618 49.1484 52.7618 49.4454 52.7508 49.7526C52.7508 50.0495 52.7453 50.3311 52.7343 50.5974ZM54.1108 48.8156C54.1108 48.6927 54.1108 48.5545 54.1108 48.4009C54.1108 48.237 54.1163 48.0732 54.1274 47.9094C54.1384 47.7353 54.1549 47.5714 54.177 47.4178C54.2101 47.254 54.2542 47.1106 54.3094 46.9878C54.3977 46.8034 54.5356 46.6806 54.7232 46.6191C54.9108 46.5474 55.1149 46.5167 55.3356 46.527C55.5674 46.527 55.7494 46.5628 55.8818 46.6345C56.0142 46.7062 56.1136 46.8034 56.1798 46.9263C56.246 47.039 56.2846 47.1721 56.2956 47.3257C56.3177 47.469 56.3287 47.6226 56.3287 47.7865C56.428 47.6226 56.5605 47.4895 56.726 47.3871C56.9025 47.2847 57.0791 47.2028 57.2556 47.1414C57.4322 47.0799 57.5922 47.039 57.7356 47.0185C57.8791 46.9878 57.9618 46.9724 57.9839 46.9724C58.2598 46.9519 58.508 46.9468 58.7287 46.957C58.9605 46.9673 59.2142 47.0134 59.4901 47.0953C59.6667 47.1567 59.8487 47.2438 60.0363 47.3564C60.2239 47.4588 60.3894 47.5817 60.5329 47.725C60.6763 47.8684 60.7701 48.0271 60.8142 48.2012C60.8694 48.365 60.8474 48.5391 60.748 48.7234C60.5936 48.9794 60.4225 49.1074 60.2349 49.1074C60.0474 49.0972 59.8432 49.0665 59.6225 49.0153C59.5011 48.9948 59.3577 48.9487 59.1922 48.877C59.0267 48.8054 58.8832 48.7593 58.7618 48.7388C58.3867 48.6876 58.0556 48.7132 57.7687 48.8156C57.4818 48.918 57.2336 49.0409 57.0239 49.1842C56.7811 49.3583 56.5715 49.558 56.3949 49.7833V51.9951C56.3949 52.2716 56.3894 52.5583 56.3784 52.8553C56.3784 53.1522 56.3342 53.4236 56.246 53.6694C56.1687 53.9049 56.0308 54.0994 55.8322 54.253C55.6446 54.3964 55.3687 54.4578 55.0046 54.4374C54.806 54.4271 54.6294 54.3401 54.4749 54.1762C54.3205 54.0022 54.2267 53.8332 54.1936 53.6694C54.1715 53.5158 54.1549 53.3314 54.1439 53.1164C54.1329 52.9014 54.1218 52.6761 54.1108 52.4406C54.1108 52.205 54.1108 51.9695 54.1108 51.734C54.1108 51.4882 54.1108 51.263 54.1108 51.0582V48.8156ZM65.4207 51.5497C65.211 51.4268 64.9738 51.3295 64.709 51.2578C64.4552 51.1862 64.1904 51.1196 63.9145 51.0582C63.6497 50.9967 63.3904 50.9302 63.1366 50.8585C62.8828 50.7766 62.6511 50.6639 62.4414 50.5206C61.989 50.2031 61.7242 49.814 61.6469 49.3532C61.5807 48.8822 61.691 48.4111 61.9779 47.9401C62.1324 47.6943 62.3366 47.4946 62.5904 47.341C62.8442 47.1772 63.12 47.0543 63.4179 46.9724C63.7269 46.8802 64.0414 46.829 64.3614 46.8188C64.6814 46.8086 64.9848 46.8239 65.2717 46.8649C65.4593 46.8956 65.6579 46.9417 65.8676 47.0031C66.0773 47.0543 66.2704 47.126 66.4469 47.2182C66.6345 47.3103 66.8 47.4281 66.9435 47.5714C67.0979 47.7046 67.2083 47.8735 67.2745 48.0783C67.3186 48.2114 67.3242 48.3394 67.291 48.4623C67.269 48.5852 67.2138 48.6876 67.1255 48.7695C67.0483 48.8514 66.9435 48.9129 66.8111 48.9538C66.6897 48.9948 66.5573 49.005 66.4138 48.9846C66.2483 48.9538 66.0938 48.9078 65.9504 48.8463C65.8069 48.7849 65.6635 48.7183 65.52 48.6466C65.3766 48.575 65.2276 48.5135 65.0731 48.4623C64.9297 48.4111 64.7752 48.3855 64.6097 48.3855C64.3559 48.3753 64.1462 48.4162 63.9807 48.5084C63.8152 48.6006 63.6993 48.7132 63.6331 48.8463C63.5779 48.9794 63.5835 49.1228 63.6497 49.2764C63.7269 49.43 63.8814 49.5631 64.1131 49.6758C64.3228 49.7782 64.5545 49.8601 64.8083 49.9215C65.0621 49.983 65.3104 50.0444 65.5531 50.1058C65.8069 50.1673 66.0497 50.239 66.2814 50.3209C66.5242 50.4028 66.7393 50.5154 66.9269 50.6588C67.291 50.9353 67.5117 51.2578 67.589 51.6265C67.6773 51.9951 67.6552 52.3586 67.5228 52.717C67.3904 53.0754 67.1586 53.3929 66.8276 53.6694C66.5076 53.9458 66.1269 54.1302 65.6855 54.2223C65.3655 54.2838 65.0179 54.3145 64.6428 54.3145C64.2786 54.3145 63.9145 54.2786 63.5504 54.207C63.1973 54.1353 62.8552 54.0226 62.5242 53.869C62.2042 53.7154 61.9338 53.5209 61.7131 53.2854C61.5586 53.1215 61.4759 52.9372 61.4648 52.7324C61.4648 52.5174 61.509 52.333 61.5973 52.1794C61.6966 52.0156 61.8345 51.903 62.011 51.8415C62.1876 51.7801 62.3862 51.8159 62.6069 51.949C62.7835 52.0617 62.9931 52.1743 63.2359 52.287C63.4786 52.3894 63.7214 52.4713 63.9642 52.5327C64.2069 52.5942 64.4386 52.6249 64.6593 52.6249C64.891 52.6249 65.0897 52.5788 65.2552 52.4866C65.4979 52.3433 65.6248 52.1794 65.6359 51.9951C65.6469 51.8006 65.5752 51.6521 65.4207 51.5497Z" fill="#FF9900"/>
<path d="M23.2441 67.6717L23.2607 66.4583L23.2772 64.2004C23.2883 63.8727 23.2938 63.5348 23.2938 63.1866C23.2938 62.8385 23.2938 62.4801 23.2938 62.1114C23.2938 61.7428 23.2938 61.4151 23.2938 61.1284C23.2938 60.8417 23.3048 60.5191 23.3269 60.1607V60.0993C23.3379 59.9969 23.3434 59.8945 23.3434 59.7921C23.3545 59.6794 23.36 59.5668 23.36 59.4541C23.371 59.2698 23.4317 59.0701 23.542 58.8551C23.6193 58.7117 23.7351 58.5889 23.8896 58.4865C24.0662 58.4045 24.2372 58.3636 24.4027 58.3636C24.491 58.3636 24.5683 58.3687 24.6345 58.3789C24.7117 58.3789 24.7834 58.3841 24.8496 58.3943C24.9931 58.4148 25.12 58.4762 25.2303 58.5786C25.2965 58.6298 25.3572 58.7117 25.4124 58.8244C25.4345 58.8858 25.451 58.9473 25.462 59.0087C25.4841 59.0599 25.5007 59.1162 25.5117 59.1777C25.5227 59.2493 25.5283 59.3159 25.5283 59.3773C25.5393 59.4388 25.5448 59.5002 25.5448 59.5617C25.5448 59.6333 25.5393 59.6999 25.5283 59.7613C25.5283 59.8125 25.5283 59.8689 25.5283 59.9303V60.1914L25.4289 68.1633V68.3169C25.4289 68.3476 25.4234 68.3885 25.4124 68.4397C25.4124 68.4807 25.4069 68.5319 25.3958 68.5933C25.3738 68.6445 25.3517 68.7009 25.3296 68.7623C25.3186 68.8135 25.302 68.8698 25.28 68.9313C25.2469 68.9825 25.2083 69.0337 25.1641 69.0849C25.131 69.1258 25.0869 69.1668 25.0317 69.2077C24.9434 69.2897 24.8 69.346 24.6014 69.3767C24.3034 69.4381 24.022 69.4125 23.7572 69.2999C23.6248 69.218 23.531 69.1156 23.4758 68.9927C23.4427 68.962 23.4262 68.9313 23.4262 68.9005C23.4151 68.8801 23.4041 68.8647 23.3931 68.8545C23.382 68.8442 23.371 68.8289 23.36 68.8084C23.3379 68.7572 23.3214 68.706 23.3103 68.6548C23.2993 68.5933 23.2938 68.5319 23.2938 68.4705C23.2827 68.4193 23.2717 68.3681 23.2607 68.3169C23.2607 68.2657 23.2552 68.2145 23.2441 68.1633C23.2331 68.0813 23.2331 67.9943 23.2441 67.9021V67.6717ZM27.3866 63.8164C27.3866 63.5809 27.3811 63.33 27.37 63.0637C27.37 62.7975 27.4197 62.5569 27.519 62.3418C27.6073 62.1473 27.7507 62.009 27.9493 61.9271C28.159 61.8349 28.3631 61.8145 28.5617 61.8657C28.7604 61.8964 28.9148 61.9527 29.0252 62.0346C29.1355 62.1165 29.2128 62.2138 29.2569 62.3265C29.3121 62.4289 29.3452 62.5517 29.3562 62.6951C29.3673 62.8282 29.3783 62.9613 29.3893 63.0945C29.4997 62.9101 29.6376 62.7617 29.8031 62.649C29.9686 62.5364 30.1397 62.4442 30.3162 62.3725C30.4928 62.3009 30.6583 62.2497 30.8128 62.2189C30.9783 62.1882 31.1052 62.1729 31.1935 62.1729C31.6128 62.1729 32.0266 62.2599 32.4348 62.434C32.8542 62.5978 33.2017 62.8333 33.4776 63.1405C33.6321 63.3249 33.7479 63.5194 33.8252 63.7242C33.9135 63.9188 33.9742 64.1236 34.0073 64.3386C34.0514 64.5537 34.079 64.7738 34.09 64.9991C34.1011 65.2141 34.1121 65.4343 34.1231 65.6596C34.1783 66.3149 34.1783 66.9652 34.1231 67.6103C34.1121 67.7434 34.1066 67.897 34.1066 68.0711C34.1066 68.2452 34.09 68.4193 34.0569 68.5933C34.0348 68.7572 33.9852 68.9057 33.9079 69.0388C33.8417 69.1617 33.7259 69.2385 33.5604 69.2692C33.3286 69.3204 33.1355 69.3306 32.9811 69.2999C32.8376 69.2794 32.7217 69.2333 32.6335 69.1617C32.5452 69.09 32.479 68.9978 32.4348 68.8852C32.3907 68.7725 32.3521 68.6445 32.319 68.5012C32.2969 68.3885 32.2748 68.2605 32.2528 68.1172C32.2417 67.9636 32.2307 67.81 32.2197 67.6564C32.2197 67.5028 32.2142 67.3543 32.2031 67.2109C32.2031 67.0573 32.2031 66.9191 32.2031 66.7962C32.2031 66.6017 32.1976 66.3866 32.1866 66.1511C32.1755 65.9156 32.1755 65.6954 32.1866 65.4906C32.1866 65.0093 32.0486 64.6458 31.7728 64.4001C31.5079 64.1441 31.1438 64.0365 30.6804 64.0775C30.3273 64.1185 30.0183 64.2516 29.7535 64.4769C29.4886 64.6919 29.3617 64.9735 29.3728 65.3217C29.3728 65.4548 29.3728 65.5777 29.3728 65.6903C29.3728 65.8029 29.3673 65.9156 29.3562 66.0282C29.3562 66.1409 29.3562 66.2637 29.3562 66.3969C29.3562 66.53 29.3562 66.6785 29.3562 66.8423C29.3562 67.1802 29.3562 67.5386 29.3562 67.9175C29.3562 68.2861 29.3066 68.5882 29.2073 68.8237C29.119 69.0695 28.97 69.2385 28.7604 69.3306C28.5507 69.4228 28.3024 69.3972 28.0155 69.2538C27.8942 69.1924 27.7948 69.1105 27.7176 69.0081C27.6514 68.8954 27.5962 68.7777 27.5521 68.6548C27.519 68.5319 27.4969 68.409 27.4859 68.2861C27.4748 68.153 27.4638 68.0301 27.4528 67.9175C27.4197 67.5796 27.3976 67.2673 27.3866 66.9805C27.3866 66.6836 27.3866 66.3661 27.3866 66.0282V63.8164ZM48.5559 65.6442C48.5559 65.9514 48.5393 66.2637 48.5062 66.5812C48.4731 66.8884 48.4069 67.1905 48.3076 67.4874C48.2083 67.7741 48.0593 68.0506 47.8607 68.3169C47.6621 68.5729 47.3918 68.7981 47.0497 68.9927C46.8842 69.0951 46.6855 69.1821 46.4538 69.2538C46.2331 69.3153 45.9959 69.3665 45.7421 69.4074C45.4993 69.4586 45.2566 69.4893 45.0138 69.4996C44.7711 69.5201 44.5449 69.5252 44.3352 69.5149C43.3421 69.4842 42.5366 69.2641 41.9187 68.8545C41.3118 68.4346 40.8428 67.9175 40.5118 67.3031C40.1918 66.6887 39.9821 66.0231 39.8828 65.3063C39.7945 64.5793 39.778 63.8881 39.8331 63.2327C39.8662 62.8436 39.938 62.4237 40.0483 61.9732C40.1697 61.5226 40.3407 61.0874 40.5614 60.6676C40.7931 60.2477 41.0745 59.8689 41.4055 59.5309C41.7476 59.193 42.1504 58.937 42.6138 58.7629C43.0442 58.5991 43.5131 58.4967 44.0207 58.4557C44.5393 58.4045 45.0469 58.4199 45.5435 58.5018C46.0511 58.5837 46.52 58.7322 46.9504 58.9473C47.3918 59.1623 47.7393 59.449 47.9931 59.8074C48.1697 60.0737 48.3076 60.3962 48.4069 60.7751C48.5062 61.154 48.5228 61.5175 48.4566 61.8657C48.4014 62.1729 48.2855 62.3879 48.109 62.5108C47.9324 62.6234 47.7393 62.6695 47.5297 62.649C47.32 62.6183 47.1159 62.5364 46.9173 62.4033C46.7297 62.2599 46.6028 62.0807 46.5366 61.8657C46.4593 61.6301 46.3655 61.4151 46.2552 61.2205C46.1449 61.0157 45.9738 60.8468 45.7421 60.7137C45.4773 60.5601 45.1959 60.473 44.898 60.4525C44.6111 60.4321 44.3297 60.4628 44.0538 60.5447C43.789 60.6266 43.5352 60.7546 43.2924 60.9287C43.0607 61.1028 42.8676 61.3025 42.7131 61.5277C42.5256 61.7837 42.3821 62.0653 42.2828 62.3725C42.1835 62.6695 42.1118 62.9818 42.0676 63.3095C42.0235 63.6269 42.0069 63.9495 42.018 64.2772C42.04 64.5946 42.0842 64.9018 42.1504 65.1988C42.2718 65.7005 42.4593 66.1716 42.7131 66.6119C42.8124 66.7757 42.9449 66.9242 43.1104 67.0573C43.2869 67.1802 43.48 67.2826 43.6897 67.3645C43.8993 67.4362 44.12 67.4823 44.3518 67.5028C44.5835 67.5233 44.8042 67.5079 45.0138 67.4567C45.3118 67.385 45.5545 67.2929 45.7421 67.1802C45.9297 67.0573 46.0787 66.914 46.189 66.7501C46.2993 66.5863 46.3711 66.4071 46.4042 66.2125C46.4483 66.018 46.4704 65.8132 46.4704 65.5981V65.5828C46.3269 65.5828 46.2 65.5828 46.0897 65.5828C45.9793 65.5725 45.8966 65.5674 45.8414 65.5674C45.5987 65.5674 45.3614 65.5265 45.1297 65.4445C44.9311 65.3831 44.7821 65.2858 44.6828 65.1527C44.5724 65.0401 44.5173 64.9018 44.5173 64.738C44.5173 64.6765 44.5173 64.6202 44.5173 64.569C44.5283 64.5076 44.5393 64.4461 44.5504 64.3847C44.5835 64.3028 44.6552 64.2004 44.7656 64.0775C44.8318 64.0263 44.9366 63.9853 45.08 63.9546C45.1462 63.9341 45.2124 63.9188 45.2787 63.9085C45.3449 63.8881 45.4221 63.8727 45.5104 63.8625C45.5766 63.8522 45.6483 63.8471 45.7256 63.8471C45.8028 63.8471 45.88 63.8471 45.9573 63.8471H47.4635C47.5849 63.8369 47.7227 63.8522 47.8772 63.8932C48.0428 63.9239 48.1697 63.9751 48.2579 64.0468C48.2911 64.0877 48.3242 64.1287 48.3573 64.1697C48.3904 64.2106 48.418 64.2567 48.44 64.3079C48.4842 64.4205 48.5118 64.5332 48.5228 64.6458C48.5338 64.7073 48.5393 64.7738 48.5393 64.8455C48.5504 64.9069 48.5559 64.9633 48.5559 65.0145V65.6442ZM52.0214 62.3572C52.3855 62.1933 52.7662 62.0756 53.1635 62.0039C53.5607 61.9322 53.9524 61.9169 54.3386 61.9578C54.7359 61.9988 55.1166 62.0961 55.4807 62.2497C55.8559 62.4033 56.1979 62.6183 56.5069 62.8948C56.7607 63.1303 56.9814 63.417 57.169 63.7549C57.3566 64.0826 57.4945 64.4052 57.5828 64.7226C57.7703 65.2858 57.7979 65.8541 57.6655 66.4276C57.5331 67.001 57.3069 67.5335 56.9869 68.025C56.8324 68.2503 56.6393 68.4551 56.4076 68.6394C56.1869 68.8135 55.9497 68.9569 55.6959 69.0695C55.3648 69.2129 55.0062 69.3101 54.62 69.3613C54.2338 69.4228 53.8586 69.4381 53.4945 69.4074C52.8324 69.3767 52.2476 69.2231 51.74 68.9466C51.2435 68.6701 50.8407 68.3169 50.5317 67.8868C50.2338 67.4567 50.0352 66.9703 49.9359 66.4276C49.8476 65.8746 49.8862 65.3114 50.0517 64.738C50.2283 64.1236 50.4821 63.6269 50.8131 63.2481C51.1552 62.8589 51.5579 62.562 52.0214 62.3572ZM52.5179 64.4154C52.3524 64.5588 52.2255 64.738 52.1372 64.953C52.049 65.1681 51.9938 65.3933 51.9717 65.6289C51.9497 65.8541 51.9662 66.0845 52.0214 66.3201C52.0876 66.5453 52.1869 66.7501 52.3193 66.9345C52.4297 67.0881 52.6283 67.2161 52.9152 67.3185C53.2021 67.4209 53.5 67.4823 53.809 67.5028C54.1621 67.5233 54.471 67.4362 54.7359 67.2417C55.0007 67.0369 55.1993 66.786 55.3317 66.489C55.4752 66.1921 55.5414 65.8695 55.5304 65.5213C55.5193 65.1732 55.42 64.8557 55.2324 64.569C55.1 64.3642 54.9124 64.2157 54.6697 64.1236C54.4379 64.0212 54.1897 63.97 53.9248 63.97C53.671 63.9597 53.4172 63.9956 53.1635 64.0775C52.9097 64.1492 52.6945 64.2618 52.5179 64.4154ZM59.0838 63.8625C59.0838 63.7396 59.0838 63.6013 59.0838 63.4477C59.0838 63.2839 59.0893 63.1201 59.1003 62.9562C59.1114 62.7821 59.1279 62.6183 59.15 62.4647C59.1831 62.3009 59.2272 62.1575 59.2824 62.0346C59.3707 61.8503 59.5086 61.7274 59.6962 61.666C59.8838 61.5943 60.0879 61.5636 60.3086 61.5738C60.5403 61.5738 60.7224 61.6097 60.8548 61.6813C60.9872 61.753 61.0865 61.8503 61.1528 61.9732C61.219 62.0858 61.2576 62.2189 61.2686 62.3725C61.2907 62.5159 61.3017 62.6695 61.3017 62.8333C61.401 62.6695 61.5334 62.5364 61.699 62.434C61.8755 62.3316 62.0521 62.2497 62.2286 62.1882C62.4052 62.1268 62.5652 62.0858 62.7086 62.0653C62.8521 62.0346 62.9348 62.0193 62.9569 62.0193C63.2328 61.9988 63.481 61.9937 63.7017 62.0039C63.9334 62.0141 64.1872 62.0602 64.4631 62.1421C64.6396 62.2036 64.8217 62.2906 65.0093 62.4033C65.1969 62.5057 65.3624 62.6285 65.5059 62.7719C65.6493 62.9153 65.7431 63.074 65.7872 63.2481C65.8424 63.4119 65.8203 63.586 65.721 63.7703C65.5665 64.0263 65.3955 64.1543 65.2079 64.1543C65.0203 64.1441 64.8162 64.1133 64.5955 64.0621C64.4741 64.0417 64.3307 63.9956 64.1652 63.9239C63.9996 63.8522 63.8562 63.8061 63.7348 63.7857C63.3596 63.7345 63.0286 63.7601 62.7417 63.8625C62.4548 63.9649 62.2065 64.0877 61.9969 64.2311C61.7541 64.4052 61.5445 64.6049 61.3679 64.8301V67.042C61.3679 67.3185 61.3624 67.6052 61.3514 67.9021C61.3514 68.1991 61.3072 68.4705 61.219 68.7162C61.1417 68.9517 61.0038 69.1463 60.8052 69.2999C60.6176 69.4433 60.3417 69.5047 59.9776 69.4842C59.779 69.474 59.6024 69.3869 59.4479 69.2231C59.2934 69.049 59.1996 68.8801 59.1665 68.7162C59.1445 68.5626 59.1279 68.3783 59.1169 68.1633C59.1059 67.9482 59.0948 67.7229 59.0838 67.4874C59.0838 67.2519 59.0838 67.0164 59.0838 66.7809C59.0838 66.5351 59.0838 66.3098 59.0838 66.105V63.8625ZM71.1494 58.5633C71.3591 58.5121 71.5412 58.5069 71.6956 58.5479C71.8612 58.5786 71.9991 58.6452 72.1094 58.7476C72.2308 58.85 72.3191 58.978 72.3743 59.1316C72.4405 59.2852 72.4736 59.4541 72.4736 59.6385C72.4846 60.1505 72.4846 60.5498 72.4736 60.8365C72.4736 61.1233 72.4736 61.3741 72.4736 61.5892V66.3047C72.4736 66.8577 72.4736 67.3185 72.4736 67.6871C72.4736 68.0557 72.4515 68.3578 72.4074 68.5933C72.3743 68.8186 72.3081 68.9876 72.2088 69.1002C72.1205 69.2129 71.9825 69.2897 71.795 69.3306C71.6074 69.3818 71.3591 69.4074 71.0501 69.4074C70.7522 69.4074 70.377 69.4074 69.9246 69.4074C68.7329 69.4074 67.7894 69.1463 67.0943 68.6241C66.4101 68.1018 66.046 67.2724 66.0019 66.1357C65.9798 65.6442 66.046 65.1937 66.2005 64.7841C66.355 64.3745 66.5812 64.0263 66.8791 63.7396C67.1881 63.4426 67.5632 63.2173 68.0046 63.0637C68.457 62.8999 68.9701 62.8231 69.5439 62.8333H70.4543V60.0839C70.4543 59.9201 70.4543 59.7613 70.4543 59.6077C70.4543 59.4439 70.4708 59.2954 70.5039 59.1623C70.537 59.0189 70.6032 58.8961 70.7025 58.7937C70.8019 58.6913 70.9508 58.6145 71.1494 58.5633ZM68.2694 67.0881C68.5012 67.385 68.9205 67.5489 69.5274 67.5796C69.6488 67.5898 69.7646 67.5949 69.875 67.5949C69.9853 67.5847 70.0846 67.5693 70.1729 67.5489C70.2722 67.5386 70.366 67.5233 70.4543 67.5028V64.6612C70.0681 64.5997 69.715 64.5639 69.395 64.5537C69.086 64.5332 68.777 64.6356 68.4681 64.8609C68.3025 64.9837 68.1756 65.1425 68.0874 65.337C67.9991 65.5213 67.9494 65.721 67.9384 65.9361C67.9274 66.1409 67.9494 66.3457 68.0046 66.5505C68.0598 66.7553 68.1481 66.9345 68.2694 67.0881Z" fill="#FF9900"/>
<path d="M73.6909 34.8166H68.1686L68.0885 34.6981L70.7387 32.9643C70.8988 32.8458 71.2211 32.3671 71.061 32.2486C70.901 32.1302 69.9318 32.3393 69.7717 32.4577L67.8379 33.6505L49.4658 6.73988L53.8422 2.37646C53.9222 2.25799 53.2153 0.120868 53.0552 0.00239996C52.8952 -0.0568338 50.2022 0.998959 50.0422 1.11743L48.1601 4.80896L45.9203 1.23116C45.8403 1.11268 44.0379 0.496668 43.7977 0.555902C43.6376 0.615135 42.8978 1.89533 42.9778 2.07303L46.0526 7.23128L34.317 25.0922C34.2369 25.2107 34.4792 25.9279 34.6393 26.0464C34.7193 26.0464 34.9617 26.0464 34.9617 26.0464C35.1217 26.0464 36.9256 26.1648 36.9256 26.0464L48.1601 8.3938L63.0667 34.8166H57.1586C57.2386 34.7574 59.2519 35.0108 59.1719 34.8923L48.8769 22.0221C48.8769 22.0221 48.7203 21.9196 48.6402 21.9196C48.6402 21.9196 48.4567 21.9196 48.3766 21.9196H48.206C48.206 21.9196 48.08 21.9196 48 21.9196L47.8399 21.8978C47.8399 21.8978 47.6351 21.963 47.6351 22.0221C47.5551 22.0814 47.5998 22.1406 47.5198 22.1999L39.1163 34.4613C39.0361 34.5798 36.3722 34.6981 36.5323 34.7574L30.2685 34.6981L34.2231 29.5506C34.3031 29.4321 32.5431 29.2659 32.3831 29.1474C32.223 29.0883 31.37 29.4321 31.2099 29.5506L28.1967 32.8956L26.5814 32.01C26.4213 31.8916 25.4523 31.8916 25.2921 32.01C25.132 32.1285 25.132 32.8378 25.2921 32.9563L28.1515 34.639L28.0715 34.6981H22.4692C22.2291 34.6981 22.069 34.8166 22.069 34.9944C22.069 35.172 22.2291 36.3602 22.4692 36.3602L27.5362 36.7902C27.5362 37.4827 29.0428 36.7902 29.0428 36.7902C29.1228 36.7902 28.5153 36.4195 28.5153 36.3602L66.8589 36.707C66.9389 36.707 68.0885 36.707 68.0885 36.707C70.0021 36.707 70.0021 36.707 70.0021 36.707L73.3161 36.6636C73.5562 36.6636 73.931 35.172 73.931 34.9944C73.931 34.8166 73.931 34.8166 73.6909 34.8166ZM56.6436 34.8166H48.6402V23.2661L56.6436 34.8166C56.6436 34.7574 56.5636 34.7574 56.6436 34.8166ZM40.5379 34.7574L47.8399 23.2661V34.7574H40.5379C40.4578 34.7574 40.4578 34.7574 40.5379 34.7574Z" fill="#FF9900"/>
<path d="M32.6421 29.0479C32.8021 29.0479 34.9763 29.1115 34.9763 28.9931L36.4828 26.763C36.5629 26.6446 34.7103 26.4453 34.5502 26.3268C34.3902 26.2675 33.4804 26.36 33.3203 26.4785L32.0029 28.1307C31.9229 28.3085 32.402 28.9886 32.6421 29.0479Z" fill="#FF9900"/>
</g>
<defs>
<clipPath id="clip0_31_23">
<rect width="96" height="128" fill="white"/>
</clipPath>
</defs>
</svg>
