<svg width="21" height="18" viewBox="0 0 21 18" fill="none" xmlns="http://www.w3.org/2000/svg">
<path d="M19.9074 15.9546H17.7778L17.7469 15.9003L18.7689 15.1057C18.8306 15.0515 18.9549 14.8321 18.8932 14.7778C18.8315 14.7235 18.4578 14.8193 18.396 14.8736L17.6502 15.4202L11.5 3L12.253 1.089C12.2838 1.03472 12.0112 0.055387 11.9495 0.00109977C11.8878 -0.0260439 10.8492 0.457769 10.7875 0.512056L9.81482 1.5L9.19801 0.56417C9.16715 0.509882 8.47204 0.227596 8.37945 0.25474C8.31772 0.281883 8.03238 0.868527 8.06324 0.949958L8.5 3L4 11C3.96914 11.0543 4.43827 11.4457 4.5 11.5C4.53086 11.5 4.9719 11.9356 4.9719 11.9356C5.03363 11.9356 5.72926 11.9899 5.72926 11.9356L10.0617 3.84642L15.8103 15.9546H13.5319C13.5628 15.9274 14.3392 16.0435 14.3083 15.9892L10.6654 10.0446C10.6654 10.0446 10.2778 10.0446 10.2469 10.0446C10.2469 10.0446 10.1761 10.0446 10.1452 10.0446H10.0794C10.0794 10.0446 10.0309 10.0446 10 10.0446L9.93827 10.0346C9.93827 10.0346 9.5 9.97286 9.5 10C9.46914 10.0271 9.03086 10.4729 9 10.5L5.96094 15.9609C5.93007 16.0152 4.52496 15.9003 4.58669 15.9274L3.16206 15.9003L4.5 14C4.53086 13.9457 4.06173 13.5543 4 13.5C3.93827 13.4729 2.56173 13.4457 2.5 13.5L2 15L1.5 14.5C1.43827 14.4457 1.06173 14.4457 1 14.5C0.938272 14.5543 0.438272 14.9457 0.5 15L2.34568 15.8732L2.31481 15.9003H0.154321C0.0617284 15.9003 0 15.9546 0 16.036C0 16.1174 0.0617284 16.919 0.154321 16.919L2.10837 16.859C1.96094 18 2.96094 17.5 2.96094 17.5C2.9918 17.5 2.76492 16.8861 2.76492 16.859L17.4609 16.9609C17.4918 16.9609 17.9609 17 17.9609 17C18.6989 17 18.4609 17 18.4609 17H19.9609C20.0535 17 20 16.1174 20 16.036C20 15.9546 20 15.9546 19.9074 15.9546ZM13.3333 15.9546H10.4609V10.6616L13.3333 15.9546C13.3333 15.9274 13.3025 15.9274 13.3333 15.9546ZM7.12232 15.9274L9.93827 10.6616L9.76953 15.9546L7.12232 15.9274C7.09146 15.9274 7.09146 15.9274 7.12232 15.9274Z" fill="#FF9900"/>
<path d="M3.53878 13.2721C3.60051 13.2721 4.86112 13.4609 4.96097 13.4609L5.46097 12.4609C5.49183 12.4067 4.33637 12.0794 4.27464 12.0251C4.21291 11.998 4.03875 11.4609 3.53878 11.4609L2.96094 12.9609C3.46094 13.4609 3.44618 13.2449 3.53878 13.2721Z" fill="#FF9900"/>
</svg>
