<svg width="25" height="20" viewBox="0 0 25 20" fill="none" xmlns="http://www.w3.org/2000/svg">
<g clip-path="url(#clip0_30_2)">
<path d="M2.84093 1.94444C2.68403 1.94444 2.55684 2.0688 2.55684 2.22222V17.7778C2.55684 17.9312 2.68403 18.0555 2.84093 18.0555H22.1591C22.316 18.0555 22.4432 17.9312 22.4432 17.7778V2.22222C22.4432 2.0688 22.316 1.94444 22.1591 1.94444H2.84093ZM0.852295 2.22222C0.852295 1.14833 1.74264 0.277771 2.84093 0.277771H22.1591C23.2574 0.277771 24.1477 1.14833 24.1477 2.22222V17.7778C24.1477 18.8517 23.2574 19.7222 22.1591 19.7222H2.84093C1.74264 19.7222 0.852295 18.8517 0.852295 17.7778V2.22222Z" fill="black"/>
<path d="M5.39771 5.83332C5.39771 4.91285 6.16085 4.16666 7.10225 4.16666C8.04365 4.16666 8.8068 4.91285 8.8068 5.83332C8.8068 6.7538 8.04365 7.49999 7.10225 7.49999C6.16085 7.49999 5.39771 6.7538 5.39771 5.83332Z" fill="black"/>
<path d="M12.9893 7.79103C13.2837 7.4553 13.7949 7.40279 14.1541 7.67139L23.8132 14.8937C24.0241 15.0513 24.1477 15.296 24.1477 15.5556V17.7778C24.1477 18.8517 23.2574 19.7222 22.1591 19.7222H2.84093C1.74264 19.7222 0.852295 18.8517 0.852295 17.7778V15.5556C0.852295 15.3346 0.942088 15.1226 1.10192 14.9663L6.78374 9.41076C7.09082 9.11051 7.57968 9.08404 7.9188 9.3493L10.1164 11.0683L12.9893 7.79103ZM13.7589 9.47405L10.8744 12.7646C10.5754 13.1057 10.0537 13.1537 9.69489 12.873L7.44964 11.1167L2.55684 15.9008V17.7778C2.55684 17.9312 2.68403 18.0556 2.84093 18.0556H22.1591C22.316 18.0556 22.4432 17.9312 22.4432 17.7778V15.9674L13.7589 9.47405Z" fill="black"/>
</g>
<defs>
<clipPath id="clip0_30_2">
<rect width="25" height="20" fill="white"/>
</clipPath>
</defs>
</svg>
